<svg xmlns="http://www.w3.org/2000/svg" viewBox="0 0 64 64">
  <!-- 로켓 본체 -->
  <path d="M32 4 C32 4 18 20 18 40 C18 48 24 52 32 52 C40 52 46 48 46 40 C46 20 32 4 32 4Z" fill="#6366f1"/>
  <!-- 로켓 창문 -->
  <circle cx="32" cy="28" r="7" fill="#e0e7ff"/>
  <circle cx="32" cy="28" r="5" fill="#a5b4fc"/>
  <!-- 창문 반짝임 -->
  <circle cx="30" cy="26" r="1.5" fill="white" opacity="0.8"/>
  <!-- 날개 (왼쪽) -->
  <path d="M18 38 C18 38 8 42 10 50 L18 46Z" fill="#f59e0b"/>
  <!-- 날개 (오른쪽) -->
  <path d="M46 38 C46 38 56 42 54 50 L46 46Z" fill="#f59e0b"/>
  <!-- 불꽃 -->
  <path d="M26 52 Q29 62 32 56 Q35 62 38 52" fill="#ef4444"/>
  <path d="M28 52 Q30 58 32 54 Q34 58 36 52" fill="#fbbf24"/>
  <!-- 로켓 코 -->
  <ellipse cx="32" cy="12" rx="4" ry="3" fill="#818cf8" opacity="0.5"/>
</svg>
